<mxfile host="app.diagrams.net" agent="Mozilla/5.0 (X11; Ubuntu; Linux x86_64; rv:139.0) Gecko/20100101 Firefox/139.0" version="27.2.0">
  <diagram name="Pagina-1" id="THEbFEzCsbpBSbU5v9ca">
    <mxGraphModel dx="1301" dy="800" grid="1" gridSize="10" guides="1" tooltips="1" connect="1" arrows="1" fold="1" page="1" pageScale="1" pageWidth="827" pageHeight="1169" math="0" shadow="0">
      <root>
        <mxCell id="0" />
        <mxCell id="1" parent="0" />
        <mxCell id="-2oNrdw5Y2BzcIP9dXEs-1" value="Start" style="ellipse;whiteSpace=wrap;html=1;" vertex="1" parent="1">
          <mxGeometry x="320" y="40" width="160" height="80" as="geometry" />
        </mxCell>
        <mxCell id="-2oNrdw5Y2BzcIP9dXEs-2" value="" style="endArrow=none;html=1;rounded=0;entryX=0.5;entryY=1;entryDx=0;entryDy=0;" edge="1" parent="1" target="-2oNrdw5Y2BzcIP9dXEs-1">
          <mxGeometry width="50" height="50" relative="1" as="geometry">
            <mxPoint x="400" y="200" as="sourcePoint" />
            <mxPoint x="440" y="440" as="targetPoint" />
          </mxGeometry>
        </mxCell>
        <mxCell id="-2oNrdw5Y2BzcIP9dXEs-3" value="costo" style="shape=parallelogram;perimeter=parallelogramPerimeter;whiteSpace=wrap;html=1;fixedSize=1;" vertex="1" parent="1">
          <mxGeometry x="320" y="200" width="160" height="60" as="geometry" />
        </mxCell>
        <mxCell id="-2oNrdw5Y2BzcIP9dXEs-4" value="" style="endArrow=none;html=1;rounded=0;entryX=0.5;entryY=1;entryDx=0;entryDy=0;" edge="1" parent="1" target="-2oNrdw5Y2BzcIP9dXEs-3">
          <mxGeometry width="50" height="50" relative="1" as="geometry">
            <mxPoint x="400" y="360" as="sourcePoint" />
            <mxPoint x="425" y="340" as="targetPoint" />
          </mxGeometry>
        </mxCell>
        <mxCell id="-2oNrdw5Y2BzcIP9dXEs-48" style="edgeStyle=orthogonalEdgeStyle;rounded=0;orthogonalLoop=1;jettySize=auto;html=1;entryX=0.5;entryY=0;entryDx=0;entryDy=0;" edge="1" parent="1" source="-2oNrdw5Y2BzcIP9dXEs-5" target="-2oNrdw5Y2BzcIP9dXEs-7">
          <mxGeometry relative="1" as="geometry" />
        </mxCell>
        <mxCell id="-2oNrdw5Y2BzcIP9dXEs-5" value="&lt;div&gt;ora&lt;/div&gt;" style="shape=parallelogram;perimeter=parallelogramPerimeter;whiteSpace=wrap;html=1;fixedSize=1;" vertex="1" parent="1">
          <mxGeometry x="320" y="360" width="160" height="60" as="geometry" />
        </mxCell>
        <mxCell id="-2oNrdw5Y2BzcIP9dXEs-9" style="edgeStyle=orthogonalEdgeStyle;rounded=0;orthogonalLoop=1;jettySize=auto;html=1;" edge="1" parent="1" source="-2oNrdw5Y2BzcIP9dXEs-7">
          <mxGeometry relative="1" as="geometry">
            <mxPoint x="200" y="640" as="targetPoint" />
          </mxGeometry>
        </mxCell>
        <mxCell id="-2oNrdw5Y2BzcIP9dXEs-13" style="edgeStyle=orthogonalEdgeStyle;rounded=0;orthogonalLoop=1;jettySize=auto;html=1;" edge="1" parent="1" source="-2oNrdw5Y2BzcIP9dXEs-7">
          <mxGeometry relative="1" as="geometry">
            <mxPoint x="600" y="640" as="targetPoint" />
          </mxGeometry>
        </mxCell>
        <mxCell id="-2oNrdw5Y2BzcIP9dXEs-7" value="&amp;nbsp;ora &amp;gt; 3" style="rhombus;whiteSpace=wrap;html=1;" vertex="1" parent="1">
          <mxGeometry x="340" y="480" width="120" height="80" as="geometry" />
        </mxCell>
        <mxCell id="-2oNrdw5Y2BzcIP9dXEs-10" value="&lt;div&gt;True&lt;/div&gt;&lt;div&gt;&lt;br&gt;&lt;/div&gt;" style="text;html=1;align=center;verticalAlign=middle;resizable=0;points=[];autosize=1;strokeColor=none;fillColor=none;" vertex="1" parent="1">
          <mxGeometry x="460" y="480" width="50" height="40" as="geometry" />
        </mxCell>
        <mxCell id="-2oNrdw5Y2BzcIP9dXEs-12" value="costo = 2.00" style="rounded=0;whiteSpace=wrap;html=1;" vertex="1" parent="1">
          <mxGeometry x="140" y="640" width="120" height="60" as="geometry" />
        </mxCell>
        <mxCell id="-2oNrdw5Y2BzcIP9dXEs-47" style="edgeStyle=orthogonalEdgeStyle;rounded=0;orthogonalLoop=1;jettySize=auto;html=1;entryX=0.5;entryY=0;entryDx=0;entryDy=0;" edge="1" parent="1" source="-2oNrdw5Y2BzcIP9dXEs-14" target="-2oNrdw5Y2BzcIP9dXEs-17">
          <mxGeometry relative="1" as="geometry" />
        </mxCell>
        <mxCell id="-2oNrdw5Y2BzcIP9dXEs-14" value="r = ora" style="rounded=0;whiteSpace=wrap;html=1;" vertex="1" parent="1">
          <mxGeometry x="330" y="880" width="120" height="60" as="geometry" />
        </mxCell>
        <mxCell id="-2oNrdw5Y2BzcIP9dXEs-15" value="r" style="shape=parallelogram;perimeter=parallelogramPerimeter;whiteSpace=wrap;html=1;fixedSize=1;" vertex="1" parent="1">
          <mxGeometry x="330" y="780" width="120" height="60" as="geometry" />
        </mxCell>
        <mxCell id="-2oNrdw5Y2BzcIP9dXEs-16" value="" style="endArrow=none;html=1;rounded=0;entryX=0.5;entryY=1;entryDx=0;entryDy=0;exitX=0.5;exitY=0;exitDx=0;exitDy=0;" edge="1" parent="1" source="-2oNrdw5Y2BzcIP9dXEs-14" target="-2oNrdw5Y2BzcIP9dXEs-15">
          <mxGeometry width="50" height="50" relative="1" as="geometry">
            <mxPoint x="390" y="740" as="sourcePoint" />
            <mxPoint x="440" y="690" as="targetPoint" />
          </mxGeometry>
        </mxCell>
        <mxCell id="-2oNrdw5Y2BzcIP9dXEs-17" value="r = r - 3" style="rounded=0;whiteSpace=wrap;html=1;" vertex="1" parent="1">
          <mxGeometry x="330" y="970" width="120" height="60" as="geometry" />
        </mxCell>
        <mxCell id="-2oNrdw5Y2BzcIP9dXEs-45" style="edgeStyle=orthogonalEdgeStyle;rounded=0;orthogonalLoop=1;jettySize=auto;html=1;entryX=0.5;entryY=0;entryDx=0;entryDy=0;" edge="1" parent="1" source="-2oNrdw5Y2BzcIP9dXEs-18" target="-2oNrdw5Y2BzcIP9dXEs-37">
          <mxGeometry relative="1" as="geometry" />
        </mxCell>
        <mxCell id="-2oNrdw5Y2BzcIP9dXEs-18" value="r != 0" style="rhombus;whiteSpace=wrap;html=1;" vertex="1" parent="1">
          <mxGeometry x="340" y="1040" width="100" height="80" as="geometry" />
        </mxCell>
        <mxCell id="-2oNrdw5Y2BzcIP9dXEs-19" value="" style="endArrow=none;html=1;rounded=0;entryX=0.5;entryY=1;entryDx=0;entryDy=0;" edge="1" parent="1" target="-2oNrdw5Y2BzcIP9dXEs-18">
          <mxGeometry width="50" height="50" relative="1" as="geometry">
            <mxPoint x="390" y="1180" as="sourcePoint" />
            <mxPoint x="230" y="1060" as="targetPoint" />
          </mxGeometry>
        </mxCell>
        <mxCell id="-2oNrdw5Y2BzcIP9dXEs-20" value="&lt;div&gt;True&lt;/div&gt;" style="text;html=1;align=center;verticalAlign=middle;resizable=0;points=[];autosize=1;strokeColor=none;fillColor=none;" vertex="1" parent="1">
          <mxGeometry x="385" y="1120" width="50" height="30" as="geometry" />
        </mxCell>
        <mxCell id="-2oNrdw5Y2BzcIP9dXEs-46" style="edgeStyle=orthogonalEdgeStyle;rounded=0;orthogonalLoop=1;jettySize=auto;html=1;entryX=0.5;entryY=0;entryDx=0;entryDy=0;" edge="1" parent="1" source="-2oNrdw5Y2BzcIP9dXEs-22" target="-2oNrdw5Y2BzcIP9dXEs-23">
          <mxGeometry relative="1" as="geometry" />
        </mxCell>
        <mxCell id="-2oNrdw5Y2BzcIP9dXEs-22" value="costo = costo + 0.50" style="rounded=0;whiteSpace=wrap;html=1;" vertex="1" parent="1">
          <mxGeometry x="330" y="1180" width="120" height="60" as="geometry" />
        </mxCell>
        <mxCell id="-2oNrdw5Y2BzcIP9dXEs-23" value="r= r-1" style="rounded=0;whiteSpace=wrap;html=1;" vertex="1" parent="1">
          <mxGeometry x="330" y="1300" width="120" height="60" as="geometry" />
        </mxCell>
        <mxCell id="-2oNrdw5Y2BzcIP9dXEs-24" value="" style="endArrow=none;html=1;rounded=0;entryX=0.5;entryY=1;entryDx=0;entryDy=0;" edge="1" parent="1" target="-2oNrdw5Y2BzcIP9dXEs-23">
          <mxGeometry width="50" height="50" relative="1" as="geometry">
            <mxPoint x="390" y="1420" as="sourcePoint" />
            <mxPoint x="230" y="1150" as="targetPoint" />
          </mxGeometry>
        </mxCell>
        <mxCell id="-2oNrdw5Y2BzcIP9dXEs-25" value="" style="endArrow=none;html=1;rounded=0;" edge="1" parent="1">
          <mxGeometry width="50" height="50" relative="1" as="geometry">
            <mxPoint x="390" y="1420" as="sourcePoint" />
            <mxPoint x="510" y="1420" as="targetPoint" />
            <Array as="points">
              <mxPoint x="450" y="1420" />
            </Array>
          </mxGeometry>
        </mxCell>
        <mxCell id="-2oNrdw5Y2BzcIP9dXEs-26" value="" style="endArrow=none;html=1;rounded=0;entryX=1;entryY=0.5;entryDx=0;entryDy=0;" edge="1" parent="1" target="-2oNrdw5Y2BzcIP9dXEs-18">
          <mxGeometry width="50" height="50" relative="1" as="geometry">
            <mxPoint x="510" y="1420" as="sourcePoint" />
            <mxPoint x="230" y="1150" as="targetPoint" />
            <Array as="points">
              <mxPoint x="510" y="1080" />
            </Array>
          </mxGeometry>
        </mxCell>
        <mxCell id="-2oNrdw5Y2BzcIP9dXEs-44" style="edgeStyle=orthogonalEdgeStyle;rounded=0;orthogonalLoop=1;jettySize=auto;html=1;entryX=0.5;entryY=0;entryDx=0;entryDy=0;" edge="1" parent="1" source="-2oNrdw5Y2BzcIP9dXEs-28" target="-2oNrdw5Y2BzcIP9dXEs-43">
          <mxGeometry relative="1" as="geometry" />
        </mxCell>
        <mxCell id="-2oNrdw5Y2BzcIP9dXEs-28" value="costo" style="shape=parallelogram;perimeter=parallelogramPerimeter;whiteSpace=wrap;html=1;fixedSize=1;" vertex="1" parent="1">
          <mxGeometry x="100" y="1480" width="120" height="60" as="geometry" />
        </mxCell>
        <mxCell id="-2oNrdw5Y2BzcIP9dXEs-33" style="edgeStyle=orthogonalEdgeStyle;rounded=0;orthogonalLoop=1;jettySize=auto;html=1;entryX=0.5;entryY=0;entryDx=0;entryDy=0;" edge="1" parent="1" source="-2oNrdw5Y2BzcIP9dXEs-32" target="-2oNrdw5Y2BzcIP9dXEs-15">
          <mxGeometry relative="1" as="geometry" />
        </mxCell>
        <mxCell id="-2oNrdw5Y2BzcIP9dXEs-36" style="edgeStyle=orthogonalEdgeStyle;rounded=0;orthogonalLoop=1;jettySize=auto;html=1;entryX=0.5;entryY=0;entryDx=0;entryDy=0;exitX=1;exitY=0.5;exitDx=0;exitDy=0;" edge="1" parent="1" source="-2oNrdw5Y2BzcIP9dXEs-32" target="-2oNrdw5Y2BzcIP9dXEs-35">
          <mxGeometry relative="1" as="geometry" />
        </mxCell>
        <mxCell id="-2oNrdw5Y2BzcIP9dXEs-32" value="ora == 24" style="rhombus;whiteSpace=wrap;html=1;" vertex="1" parent="1">
          <mxGeometry x="540" y="640" width="120" height="80" as="geometry" />
        </mxCell>
        <mxCell id="-2oNrdw5Y2BzcIP9dXEs-34" value="False" style="text;html=1;align=center;verticalAlign=middle;resizable=0;points=[];autosize=1;strokeColor=none;fillColor=none;" vertex="1" parent="1">
          <mxGeometry x="485" y="648" width="50" height="30" as="geometry" />
        </mxCell>
        <mxCell id="-2oNrdw5Y2BzcIP9dXEs-35" value="costo = 10.00" style="rounded=0;whiteSpace=wrap;html=1;" vertex="1" parent="1">
          <mxGeometry x="660" y="780" width="120" height="60" as="geometry" />
        </mxCell>
        <mxCell id="-2oNrdw5Y2BzcIP9dXEs-38" style="edgeStyle=orthogonalEdgeStyle;rounded=0;orthogonalLoop=1;jettySize=auto;html=1;" edge="1" parent="1" source="-2oNrdw5Y2BzcIP9dXEs-37">
          <mxGeometry relative="1" as="geometry">
            <mxPoint x="60" y="1310" as="targetPoint" />
          </mxGeometry>
        </mxCell>
        <mxCell id="-2oNrdw5Y2BzcIP9dXEs-37" value="r&amp;lt;0" style="rhombus;whiteSpace=wrap;html=1;" vertex="1" parent="1">
          <mxGeometry x="120" y="1160" width="80" height="80" as="geometry" />
        </mxCell>
        <mxCell id="-2oNrdw5Y2BzcIP9dXEs-39" value="True" style="text;html=1;align=center;verticalAlign=middle;resizable=0;points=[];autosize=1;strokeColor=none;fillColor=none;" vertex="1" parent="1">
          <mxGeometry x="75" y="1168" width="50" height="30" as="geometry" />
        </mxCell>
        <mxCell id="-2oNrdw5Y2BzcIP9dXEs-42" style="edgeStyle=orthogonalEdgeStyle;rounded=0;orthogonalLoop=1;jettySize=auto;html=1;exitX=0.5;exitY=1;exitDx=0;exitDy=0;" edge="1" parent="1" source="-2oNrdw5Y2BzcIP9dXEs-40">
          <mxGeometry relative="1" as="geometry">
            <mxPoint x="160" y="1480" as="targetPoint" />
          </mxGeometry>
        </mxCell>
        <mxCell id="-2oNrdw5Y2BzcIP9dXEs-40" value="costo = costo + 0.50" style="rounded=0;whiteSpace=wrap;html=1;" vertex="1" parent="1">
          <mxGeometry y="1310" width="120" height="60" as="geometry" />
        </mxCell>
        <mxCell id="-2oNrdw5Y2BzcIP9dXEs-43" value="Fine" style="ellipse;whiteSpace=wrap;html=1;" vertex="1" parent="1">
          <mxGeometry x="250" y="1640" width="120" height="80" as="geometry" />
        </mxCell>
      </root>
    </mxGraphModel>
  </diagram>
</mxfile>
